<?xml version="1.0" encoding="utf-8"?>
<!-- Generator: Adobe Illustrator 24.0.2, SVG Export Plug-In . SVG Version: 6.00 Build 0)  -->
<svg version="1.1" id="Layer_1" xmlns="http://www.w3.org/2000/svg" xmlns:xlink="http://www.w3.org/1999/xlink" x="0px" y="0px"
	 viewBox="0 0 226.8 66.9" style="enable-background:new 0 0 226.8 66.9;" xml:space="preserve">
<style type="text/css">
	.st0{opacity:0.4;fill:#FFFFFF;enable-background:new    ;}
	.st1{opacity:0.6;fill:#FFFFFF;enable-background:new    ;}
	.st2{opacity:0.8;fill:#FFFFFF;enable-background:new    ;}
	.st3{fill:#FFFFFF;}
</style>
<title>White Transparent</title>
<path class="st0" d="M170.4,43c-5.1,0-9.2,4.1-9.2,9.2c0,0,0,0,0,0v5.4c0,5.1,4.1,9.2,9.2,9.2s9.2-4.1,9.2-9.2l0,0v-5.4
	C179.6,47.1,175.5,43,170.4,43C170.4,43,170.4,43,170.4,43z"/>
<path class="st1" d="M193.8,21.5c-5.1-0.1-9.3,4-9.4,9.1c0,0,0,0,0,0v26.9c0.2,5.2,4.5,9.2,9.7,9.1c4.9-0.2,8.9-4.1,9.1-9.1V30.7
	C203.1,25.6,198.9,21.5,193.8,21.5C193.8,21.5,193.8,21.5,193.8,21.5z"/>
<path class="st2" d="M217.4,0c-5.1-0.1-9.3,4-9.4,9.2c0,0,0,0,0,0v48.4c0.2,5.2,4.5,9.2,9.7,9.1c4.9-0.2,8.9-4.1,9.1-9.1V9.2
	C226.7,4.1,222.5,0,217.4,0C217.4,0,217.4,0,217.4,0z"/>
<path class="st3" d="M15.9,66.1c-1.5,0.6-3.1,0.9-4.7,0.8c-5,0-7.5-2.6-7.5-7.8V48.7H0v-5.2h3.7v-4.9l7-2v6.9h5.1v5.2h-5.1V58
	c0,2.4,0.9,3.6,2.8,3.6c0.8,0,1.6-0.2,2.3-0.6V66.1z"/>
<path class="st3" d="M39.9,56.9H25c0.2,3.3,2.3,5,6.3,5c2.3,0.1,4.6-0.6,6.6-1.8v5.1c-2.6,1.2-5.4,1.8-8.2,1.7c-3.7,0-6.6-1-8.6-3.1
	c-2-2-3.1-4.9-3.1-8.6c0-3.8,1.1-6.8,3.3-9c2.1-2.2,5.1-3.4,8.1-3.3c3.3,0,5.9,1,7.7,3c1.9,2.2,2.9,5.1,2.7,8V56.9z M33.4,52.6
	c0-3.3-1.3-4.9-4-4.9c-1.1,0-2.2,0.5-2.9,1.4c-0.9,1-1.4,2.2-1.5,3.5H33.4z"/>
<path class="st3" d="M61.3,65.5c-2.1,1-4.5,1.5-6.9,1.4c-3.2,0.1-6.2-1-8.5-3.2c-2.2-2.2-3.4-5.2-3.3-8.2c0-3.9,1.2-7,3.5-9.2
	c2.5-2.3,5.9-3.5,9.4-3.4c2.7,0,4.6,0.4,5.8,1.1v6c-1.4-1.1-3.2-1.7-4.9-1.6c-1.8-0.1-3.5,0.5-4.8,1.8c-1.2,1.3-1.9,3.1-1.8,4.9
	c-0.1,1.8,0.5,3.5,1.7,4.8c1.3,1.2,2.9,1.8,4.7,1.7c1.8,0,3.6-0.6,5.2-1.6L61.3,65.5z"/>
<path class="st3" d="M101.7,66.4h-7V53.3c0-3.3-1.2-5-3.7-5c-1.1,0-2.2,0.5-2.8,1.5c-0.8,1.1-1.1,2.4-1.1,3.7v12.8H80V53.2
	c0-3.2-1.2-4.9-3.6-4.9c-1.1,0-2.2,0.5-2.9,1.4c-0.8,1.1-1.2,2.5-1.1,3.9v12.7h-7.1V43.5h7.1v3.6h0.1c0.8-1.2,1.8-2.3,3.1-3
	c1.3-0.8,2.8-1.2,4.3-1.1c2.9-0.2,5.6,1.5,6.6,4.3c1.6-2.8,4.5-4.4,7.7-4.3c5,0,7.5,3.1,7.5,9.2V66.4z"/>
<path class="st3" d="M126,66.4h-6.7v-3.3h-0.1c-1.4,2.5-4,4-6.8,3.8c-1.9,0.1-3.8-0.6-5.2-1.9c-1.3-1.3-2-3.1-1.9-5
	c0-4.4,2.6-7,7.9-7.7l6.2-0.8c0-2.5-1.4-3.8-4.1-3.8c-2.8,0-5.5,0.9-7.8,2.4v-5.3c1.3-0.6,2.6-1.1,4-1.3c1.5-0.4,3.1-0.6,4.7-0.6
	c6.5,0,9.8,3.3,9.8,9.8L126,66.4z M119.3,57.1v-1.5l-4.2,0.5c-2.3,0.3-3.4,1.3-3.4,3.1c0,0.8,0.3,1.5,0.8,2c0.6,0.5,1.4,0.8,2.3,0.8
	c1.2,0,2.4-0.5,3.2-1.4C118.9,59.6,119.4,58.3,119.3,57.1z"/>
<path class="st3" d="M152,66.4h-7V53.7c0-3.6-1.3-5.3-3.8-5.3c-1.2,0-2.3,0.5-3,1.4c-0.8,1-1.2,2.3-1.2,3.6v13.1H130V43.5h7.1v3.6
	h0.1c1.5-2.7,4.3-4.3,7.4-4.2c5.1,0,7.6,3.1,7.6,9.4L152,66.4z"/>
</svg>
