<svg id="Layer_1" data-name="Layer 1" xmlns="http://www.w3.org/2000/svg" viewBox="0 0 400 149.3"><defs><style>.cls-1,.cls-3{fill:#fff;}.cls-1{fill-rule:evenodd;}.cls-2{opacity:0.5;}</style></defs><polyline class="cls-1" points="14.26 109.21 25.16 109.21 25.16 64.98 25.31 64.98 38.29 109.21 47.26 109.21 60.23 64.54 60.38 64.54 60.38 109.21 71.28 109.21 71.28 46.19 54.89 46.19 43.18 89.52 43.03 89.52 30.65 46.19 14.26 46.19 14.26 109.21"/><path class="cls-1" d="M116.81,79.64c-.66-11.65-9-17.3-18-17.3-12.45,0-19.57,10.5-19.57,24.71,0,13.68,7.79,23.39,19.35,23.39,10.09,0,17.13-6.62,18.46-18.71H106.88c-.67,5.56-3.49,9.27-8.38,9.27-6.6,0-8.75-7.86-8.75-14.39,0-6.71,2.22-14.83,9-14.83,4.38,0,7.12,2.74,7.79,7.86h10.3"/><path class="cls-1" d="M163.53,109.21h7.41V75.14H148.7V85.46h11.71c-.66,8.74-5,13.6-12.6,13.6-10.45,0-14.38-10.6-14.38-21.1,0-11,3.93-21.62,14.38-21.62,5.48,0,9.86,3.61,11.2,10.59h11.12c-1.26-14.3-11.49-22.25-22.32-22.25-16.39,0-26,14.57-26,33.28,0,18.18,9.63,32.75,26,32.75,5.11,0,10.46-2.39,14.53-8.65l1.19,7.15"/><polyline class="cls-1" points="180.35 109.21 220.54 109.21 220.54 97.56 191.99 97.56 191.99 82.11 217.65 82.11 217.65 71.34 191.99 71.34 191.99 57.83 219.95 57.83 219.95 46.19 180.35 46.19 180.35 109.21"/><path class="cls-1" d="M237.75,78c0-11,3.92-21.62,14.38-21.62S266.51,66.93,266.51,78c0,10.5-3.93,21.1-14.38,21.1S237.75,88.46,237.75,78m-11.64,0c0,18.18,9.63,32.75,26,32.75s26-14.57,26-32.75c0-18.71-9.63-33.28-26-33.28S226.11,59.25,226.11,78Z"/><path class="cls-1" d="M332.65,67.37c-1.41-14.56-11.2-22.69-22.84-22.69-16.39,0-26,14.57-26,33.28,0,18.18,9.64,32.75,26,32.75,13,0,22.1-10.06,23.28-25.78H321.82c-.89,8.3-4.89,14.13-12,14.13-10.45,0-14.39-10.6-14.39-21.1,0-11,3.94-21.62,14.39-21.62,5.78,0,10.82,4.76,11.56,11h11.28"/><polyline class="cls-1" points="341.03 109.21 352.67 109.21 352.67 82.02 374.1 82.02 374.1 109.21 385.74 109.21 385.74 46.19 374.1 46.19 374.1 70.37 352.67 70.37 352.67 46.19 341.03 46.19 341.03 109.21"/><g class="cls-2"><rect class="cls-3" x="14.5" y="127.53" width="107.53" height="4.41"/><rect class="cls-3" x="278.15" y="127.53" width="107.53" height="4.41"/><rect class="cls-3" x="142.78" y="25.72" width="242.96" height="4.41"/><polygon class="cls-3" points="81.99 51.23 118.35 51.23 129.78 33.92 93.41 33.92 81.99 51.23"/><polygon class="cls-3" points="94.28 32.75 130.51 32.75 136.88 23.11 100.64 23.11 94.28 32.75"/><polygon class="cls-3" points="104.66 16.9 140.82 16.9 142.73 14.01 106.57 14.01 104.66 16.9"/><polygon class="cls-3" points="101.39 21.83 137.55 21.83 140 18.11 103.85 18.11 101.39 21.83"/><rect class="cls-3" x="14.26" y="25.72" width="75.62" height="4.41"/></g><path class="cls-3" d="M134.14,124.38h-5.09v-1.71h12.22v1.71h-5.09V138h-2Z"/><path class="cls-3" d="M142.64,122.67H153.2v1.71h-8.52v4.86h7.94V131h-7.94v5.29h8.58V138H142.64Z"/><path class="cls-3" d="M165.8,127.27a4,4,0,0,0-4.28-3.25c-3.64,0-5.18,3-5.18,6.18,0,3.49,1.54,6.41,5.2,6.41,2.68,0,4.22-1.89,4.41-4.42h2c-.39,3.82-2.76,6.13-6.62,6.13-4.75,0-7.06-3.51-7.06-8s2.52-8,7.23-8c3.19,0,5.83,1.72,6.3,5Z"/><path class="cls-3" d="M170.12,122.67h2v6.57h8.05v-6.57h2V138h-2v-7h-8.05v7h-2Z"/><path class="cls-3" d="M185.2,122.67h2.17l8,12.39h0V122.67h1.93V138h-2.23l-8-12.26h0V138H185.2Z"/><path class="cls-3" d="M206.89,122.3c4.86,0,7.32,3.86,7.32,8s-2.46,8-7.32,8-7.33-3.86-7.33-8S202,122.3,206.89,122.3Zm0,14.31c3.72,0,5.28-3.22,5.28-6.3s-1.56-6.29-5.28-6.29-5.29,3.21-5.29,6.29S203.16,136.61,206.89,136.61Z"/><path class="cls-3" d="M216.38,122.67h2v13.57h8.09V138H216.38Z"/><path class="cls-3" d="M233.88,122.3c4.86,0,7.32,3.86,7.32,8s-2.46,8-7.32,8-7.32-3.86-7.32-8S229,122.3,233.88,122.3Zm0,14.31c3.73,0,5.29-3.22,5.29-6.3s-1.56-6.29-5.29-6.29-5.29,3.21-5.29,6.29S230.16,136.61,233.88,136.61Z"/><path class="cls-3" d="M254.79,136.05a6,6,0,0,1-4.91,2.27c-4.55,0-7.27-3.73-7.27-7.71,0-4.45,2.44-8.31,7.27-8.31,3.34,0,6,1.5,6.58,5.08h-2c-.4-2.31-2.27-3.36-4.54-3.36-3.7,0-5.24,3.21-5.24,6.48s1.84,6.11,5.24,6.11a4.61,4.61,0,0,0,4.91-5h-4.88V129.9h6.7v8h-1.29Z"/><path class="cls-3" d="M264.63,131.7V138h-2V131.7l-5.91-9h2.42l4.58,7.28,4.47-7.28h2.32Z"/></svg>