<?xml version="1.0" encoding="utf-8"?>
<!-- Generator: Adobe Illustrator 24.0.2, SVG Export Plug-In . SVG Version: 6.00 Build 0)  -->
<svg version="1.1" id="Layer_1" xmlns="http://www.w3.org/2000/svg" xmlns:xlink="http://www.w3.org/1999/xlink" x="0px" y="0px"
	 viewBox="0 0 157.3 41.6" style="enable-background:new 0 0 157.3 41.6;" xml:space="preserve">
<style type="text/css">
	.st0{opacity:0.7;}
	.st1{fill:#E74518;}
	.st2{fill:#FFFFFF;}
	.st3{fill:#00A5B5;}
</style>
<g class="st0">
	<path class="st1" d="M8,4C5.8,4,4,5.7,4,8v19c0,2.2,1.8,4,4,4h112.4c2.2,0,4-1.8,4-4V8c0-2.2-1.8-4-4-4H8z"/>
</g>
<g>
	<path class="st2" d="M27.3,21c-0.1-0.2-0.1-0.4-0.2-0.7c0-0.4-0.1-1.2-0.1-2.2c0-1.1,0-1.8,0-2.3c0-0.2-0.1-0.4-0.3-0.6
		c-0.2-0.1-0.4-0.2-0.5-0.2c-0.1,0-0.3,0-0.4,0.3c0,0.1-0.1,0.2-0.1,0.4c-0.1,0.4-0.2,0.6-0.2,0.8c-0.2,0.5-0.5,1.2-0.9,1.9
		c-0.4,0.7-0.8,1.4-1.2,1.9c-0.3,0.4-0.5,0.5-0.6,0.6c0-0.1,0-0.3,0-0.7c0-1.1,0.1-1.9,0.3-2.5c0.2-0.6,0.4-1.2,0.6-1.6
		c0.1-0.2,0.2-0.4,0.2-0.5c0-0.2-0.1-0.5-0.7-0.5c-0.2,0-0.4,0.1-0.5,0.2c-0.1,0.1-0.2,0.3-0.3,0.5c-0.2,0.5-0.4,1.1-0.6,2
		c-0.1,0.4-0.2,0.9-0.2,1.3c-0.1,0-0.1-0.1-0.2-0.1c-0.3,0-0.4,0.2-0.6,0.5c-0.1,0.2-0.1,0.2-0.1,0.2c-0.5,0.5-1,0.9-1.6,1.2
		c-0.5,0.3-1.1,0.4-1.7,0.4c-0.4,0-0.7-0.1-0.9-0.3c-0.3-0.2-0.5-0.4-0.6-0.7c-0.1-0.3-0.2-0.6-0.2-1c0-0.6,0.1-1.2,0.2-1.8
		c0.2-0.6,0.3-1.2,0.6-1.7c0.5-1.1,1-1.7,1.5-1.7c0.1,0,0.1,0,0.2,0.1c0.1,0.1,0.1,0.1,0.2,0.3c0,0.2,0.1,0.4,0.1,0.6c0,0,0,0,0,0.1
		c-0.1,0.2-0.1,0.2-0.1,0.3c0,0.3,0.2,0.5,0.5,0.5c0.3,0,0.4-0.2,0.5-0.3c0.1-0.1,0.2-0.3,0.2-0.5c0.1-0.2,0.1-0.4,0.1-0.6
		c0-0.5-0.1-1-0.4-1.3c-0.6-0.8-1.8-0.8-2.7,0.1c-0.4,0.4-0.8,1-1.1,1.6c-0.3,0.6-0.6,1.4-0.8,2.2c-0.2,0.8-0.4,1.6-0.4,2.3
		c0,1,0.3,1.9,0.9,2.4c0.6,0.5,1.4,0.8,2.3,0.8c0.9,0,1.7-0.3,2.4-0.8c0.7-0.5,1.2-1,1.6-1.6c0,0.6,0.1,1.1,0.2,1.4
		c0.1,0.5,0.5,0.8,1,0.8c0.4,0,0.9-0.3,1.4-1c0.5-0.6,1-1.3,1.4-2.2c0.2-0.3,0.3-0.5,0.4-0.8c0,1,0,1.6,0.1,2c0,0.5,0.1,0.9,0.3,1.3
		c0.1,0.2,0.3,0.8,0.9,0.8c0.3,0,0.5-0.1,0.6-0.2s0.2-0.3,0.2-0.6c0-0.1-0.1-0.3-0.2-0.5C27.5,21.3,27.4,21.2,27.3,21z"/>
	<path class="st2" d="M33.2,18.9c-0.4-0.2-1-0.4-1.7-0.6c-0.1,0-0.2,0-0.3-0.1c-0.1,0-0.1,0-0.2-0.1c-0.7-0.2-1.1-0.3-1.4-0.4
		c-0.2-0.1-0.2-0.1-0.2-0.2c0-0.1,0-0.4,0.3-0.6c0.3-0.2,0.6-0.4,1-0.5c0.5-0.1,0.7-0.2,0.8-0.2c0.4,0.3,0.8,0.1,1.1-0.3
		c0.1-0.2,0.2-0.4,0.2-0.6c0-0.2-0.1-0.7-0.9-0.7c-0.4,0-0.8,0.1-1.4,0.3c-0.6,0.2-1.2,0.5-1.6,0.9c-0.5,0.4-0.8,1-0.8,1.5
		c0,0.4,0.2,0.7,0.4,0.9c0.2,0.2,0.6,0.3,0.9,0.5c0.3,0.1,0.8,0.2,1.5,0.4c0.6,0.1,0.9,0.2,1.2,0.3c0.2,0.1,0.3,0.1,0.4,0.2
		c0.1,0,0.1,0.1,0.1,0.3c0,0.2-0.1,0.3-0.3,0.5c-0.2,0.2-0.5,0.4-0.8,0.5c-0.4,0.1-0.8,0.2-1.1,0.2v0c0-0.2-0.1-0.4-0.5-0.4
		c-0.2,0-0.4,0.1-0.7,0.4c-0.3,0.3-0.4,0.5-0.4,0.7c0,0.2,0.1,0.4,0.4,0.6c0.2,0.1,0.5,0.2,1,0.2c0.6,0,1.3-0.1,1.8-0.4
		c0.6-0.2,1.1-0.6,1.4-1c0.4-0.4,0.6-0.9,0.6-1.4C34,19.6,33.7,19.1,33.2,18.9z"/>
	<path class="st2" d="M41.1,15.7c-0.2-0.2-0.4-0.3-0.6-0.3c-0.1,0-0.3,0.1-0.5,0.4c-0.9,0.2-1.5,0.3-2,0.4c0-0.4,0-0.8,0-1.1
		c0-0.4,0-0.8,0.1-1c0.1-0.3,0.1-0.5,0.1-0.6c0-0.2-0.1-0.3-0.1-0.4C37.9,13,37.7,13,37.6,13c-0.4,0-0.6,0.2-0.8,0.5
		c-0.1,0.2-0.1,0.4-0.2,0.6c0,0.2,0,0.5,0,0.9c0,0.2,0,0.6,0,1c0,0.2,0,0.3,0,0.4c-0.2,0-0.6,0.1-1,0.2c-0.1,0-0.2,0.1-0.5,0.1
		c-0.2,0-0.4,0.1-0.5,0.1c-0.3,0-0.4,0-0.6,0.1c-0.2,0.1-0.3,0.3-0.3,0.6c0,0.2,0.1,0.4,0.3,0.6c0.2,0.1,0.3,0.2,0.5,0.2
		c0.1,0,0.3,0,1-0.2c0.4-0.1,0.8-0.2,1.2-0.2c0,0.3,0,0.7,0,1c0,0.5,0,1,0.1,1.4c0,0.4,0.1,0.8,0.1,1.2c0.1,0.4,0.1,0.7,0.2,0.8
		c0.1,0.1,0.1,0.2,0.2,0.3c0.1,0.1,0.2,0.1,0.4,0.1c0.2,0,0.4-0.1,0.5-0.2c0.3-0.2,0.3-0.4,0.3-0.7c0,0-0.1-0.2-0.2-0.5
		c-0.1-0.3-0.1-0.6-0.2-1.2c0-0.4,0-0.9-0.1-1.4c0-0.4,0-0.8,0-1.2l0.6-0.1c0.1,0,0.6-0.1,1.4-0.2c0.4-0.1,0.7-0.1,0.9-0.2
		c0,0,0,0,0,0c0.2-0.2,0.4-0.4,0.4-0.7C41.4,16.1,41.3,15.9,41.1,15.7z"/>
	<path class="st2" d="M45.5,16.9C45.5,16.8,45.5,16.8,45.5,16.9c-0.1-0.1,0-0.1,0-0.2c0-0.2-0.1-0.4-0.3-0.4c-0.2-0.1-0.6-0.1-0.9,0
		c0-0.1,0.1-0.1,0.1-0.2c0-0.2-0.1-0.4-0.3-0.5c-0.4-0.2-0.8-0.1-1.2,0.1c-0.2,0.2-0.4,0.4-0.6,0.7c-0.1,0.2-0.2,0.4-0.2,0.4
		c-0.3,0.6-0.6,1.2-0.7,1.9c-0.2,0.7-0.3,1.3-0.3,1.8c0,0.6,0.2,1.1,0.5,1.5c0.4,0.4,0.9,0.6,1.7,0.6c0.7,0,1.4-0.2,1.9-0.6
		c0.5-0.4,1-0.8,1.3-1.3v0c0.3-0.5,0.5-1,0.5-1.4c0-0.5-0.2-1-0.5-1.4C46.2,17.5,45.9,17.2,45.5,16.9z M45.3,20.1
		c-0.2,0.3-0.4,0.6-0.8,0.8c-0.3,0.2-0.6,0.3-1,0.3c-0.9,0-1-0.4-1-0.7c0-0.5,0.1-1,0.2-1.4c0.1-0.4,0.3-0.9,0.6-1.4
		c0.1-0.2,0.2-0.3,0.3-0.5c0.1,0.1,0.2,0.3,0.2,0.4c0.1,0.1,0.3,0.3,0.6,0.5c0.3,0.3,0.6,0.5,0.8,0.7c0.2,0.2,0.2,0.4,0.2,0.6
		C45.5,19.5,45.4,19.8,45.3,20.1z"/>
	<path class="st2" d="M55.1,15.2c-0.7,0-1.2,0.9-1.5,1.6c-0.1,0.3-0.3,0.6-0.4,1c0,0,0,0,0,0c0-0.9-0.1-1.6-0.2-2
		c-0.2-0.8-0.7-1-1-1c-0.6,0-1.2,0.7-1.9,2.2c-0.3,0.7-0.6,1.6-0.9,2.4l0-0.1c0-1.1-0.1-2-0.1-2.7c-0.1-1.1-0.1-1.3-0.2-1.4
		c-0.2-0.5-0.5-0.5-0.7-0.5c-0.2,0-0.4,0.1-0.5,0.3c-0.1,0.2-0.2,0.3-0.2,0.5c0,0,0,0.1,0.1,1c0.1,0.5,0.2,1.6,0.2,3.2
		c0,0.5,0,0.8,0.1,1c0,0.8,0.1,1.4,0.1,1.9c0,0.2,0.1,0.4,0.3,0.5c0.1,0,0.2,0.1,0.4,0.1c0.2,0,0.3-0.1,0.5-0.2
		c0.1-0.1,0.2-0.2,0.3-0.4l0.1-0.4c0.5-1.6,1-2.9,1.5-4.1c0.4-0.9,0.6-1.3,0.8-1.4c0,0,0,0,0,0c0,0.3,0.1,0.8,0.1,1.4
		c0,0.5,0,1.2-0.1,2.1c0,0.8-0.1,1.4-0.1,1.8c0,0.4,0.3,0.6,0.6,0.6c0.2,0,0.4-0.1,0.6-0.2c0.1-0.1,0.2-0.3,0.2-0.5
		c1.1-3.9,1.6-4.7,1.8-4.9c0.1,0.1,0.2,0.4,0.3,1.1c0.1,1,0.2,2.4,0.2,4.3c0,0.4,0.3,0.6,0.6,0.6c0.2,0,0.4-0.1,0.6-0.2c0,0,0,0,0,0
		c0.1-0.1,0.2-0.3,0.2-0.5C56.9,17.3,56.4,15.2,55.1,15.2z M56.4,22.3L56.4,22.3L56.4,22.3L56.4,22.3z"/>
	<path class="st2" d="M59.5,13.3c0-0.1-0.1-0.3-0.2-0.5c-0.1-0.1-0.2-0.2-0.3-0.3c-0.1-0.1-0.3-0.3-0.5-0.3c-0.2-0.1-0.4,0-0.7,0.2
		c-0.2,0.2-0.3,0.4-0.3,0.6c0,0.3,0.2,0.5,0.4,0.6c0.2,0.2,0.5,0.3,0.7,0.3C59.4,13.9,59.5,13.5,59.5,13.3z"/>
	<path class="st2" d="M59.6,20.4c-0.1-0.6-0.1-1.3-0.1-2.2l0-1.7c0-0.6,0-0.9-0.1-1.1c-0.1-0.3-0.4-0.5-0.8-0.5
		c-0.3,0-0.4,0.2-0.5,0.3c-0.1,0.1-0.1,0.3-0.1,0.4c0,0.4,0,1,0.1,1.7c0,0.7,0.1,1.5,0.1,2.2c0.1,1.1,0.1,1.9,0.2,2.4
		c0,0.3,0.1,0.9,0.6,0.9c0,0,0.1,0,0.1,0c0.2,0,0.3,0,0.4-0.1c0.2-0.1,0.3-0.3,0.3-0.5c0-0.1,0-0.3-0.1-0.8
		C59.7,20.8,59.6,20.5,59.6,20.4z"/>
	<path class="st2" d="M65.9,18.9c-0.4-0.2-1-0.4-1.7-0.6c-0.1,0-0.2,0-0.3-0.1c-0.1,0-0.1,0-0.2-0.1c-0.7-0.2-1.1-0.3-1.4-0.4
		c-0.2-0.1-0.2-0.1-0.2-0.2c0-0.1,0-0.4,0.3-0.6c0.3-0.2,0.6-0.4,1-0.5c0.5-0.1,0.7-0.2,0.8-0.2c0.4,0.3,0.8,0.1,1-0.3
		c0.1-0.2,0.2-0.4,0.2-0.6c0-0.2-0.1-0.7-0.9-0.7c-0.4,0-0.8,0.1-1.4,0.3c-0.6,0.2-1.2,0.5-1.6,0.9c-0.5,0.4-0.8,1-0.8,1.5
		c0,0.4,0.2,0.7,0.5,0.9c0.2,0.2,0.6,0.4,0.9,0.5c0.3,0.1,0.8,0.2,1.5,0.4c0.5,0.1,0.9,0.2,1.2,0.3c0.2,0.1,0.3,0.1,0.4,0.2
		c0.1,0,0.1,0.1,0.1,0.3c0,0.2-0.1,0.3-0.3,0.5c-0.2,0.2-0.5,0.4-0.8,0.5c-0.4,0.1-0.8,0.2-1.1,0.2v0c0-0.2-0.1-0.4-0.5-0.4
		c-0.2,0-0.4,0.1-0.7,0.4c-0.3,0.3-0.4,0.5-0.4,0.7c0,0.2,0.1,0.4,0.4,0.6c0.2,0.1,0.5,0.2,1,0.2c0.6,0,1.3-0.1,1.8-0.4
		c0.6-0.2,1.1-0.6,1.4-1c0.4-0.4,0.6-0.9,0.6-1.4C66.7,19.6,66.4,19.1,65.9,18.9z"/>
	<path class="st2" d="M72.8,18.2c-0.3,0-0.4,0.3-0.5,0.4c0,0.1-0.1,0.2-0.1,0.2c-0.3,0.6-0.6,1.2-1.1,1.6c-0.4,0.4-0.9,0.6-1.5,0.6
		c-0.4,0-0.6-0.1-0.8-0.3c-0.2-0.2-0.3-0.6-0.3-1c0-0.3,0-0.6,0.1-0.9c0.6-0.1,1.1-0.3,1.6-0.5c0.6-0.2,1.1-0.5,1.5-0.9
		c0.5-0.4,0.7-0.8,0.7-1.2c0-0.4-0.2-0.8-0.5-1c-0.3-0.2-0.7-0.3-1.1-0.3c-0.7,0-1.3,0.3-1.9,0.8c-0.6,0.5-1.1,1.1-1.4,1.9
		c-0.4,0.8-0.5,1.5-0.5,2.3c0,0.9,0.2,1.6,0.7,2c0.5,0.4,1.1,0.7,1.8,0.7c0.8,0,1.5-0.3,2.1-0.8c0.5-0.5,0.9-1.1,1.2-1.7
		c0.4-0.8,0.4-1.1,0.4-1.3C73.2,18.2,72.8,18.2,72.8,18.2z M70,16.5c0.3-0.2,0.5-0.3,0.8-0.3c0.1,0,0.3,0,0.4,0.1c0,0,0,0,0,0
		c0,0,0,0.1-0.3,0.3c-0.3,0.2-0.7,0.4-1.1,0.6c-0.2,0.1-0.4,0.1-0.6,0.2c0,0,0.1-0.1,0.1-0.1C69.4,17,69.7,16.7,70,16.5z"/>
	<path class="st2" d="M79.5,20.8c0,0,0-0.1,0-0.2c0-0.3-0.1-1.1-0.1-2.2c0-1.1-0.1-2.2-0.1-3.2c0-0.5,0-1.1,0-1.6c0-0.5,0-0.9,0-1.1
		l0-0.7c0-0.2-0.1-0.4-0.3-0.6c-0.2-0.1-0.3-0.2-0.5-0.2c-0.3,0-0.4,0.1-0.5,0.2c-0.1,0.1-0.1,0.2-0.1,0.3C78,12,77.9,12.4,77.9,13
		c0,0.1,0,0.6,0,1.7l0,0c-0.1,0-0.2-0.1-0.4-0.1c-0.4,0-0.9,0.3-1.7,1c-0.7,0.6-1.3,1.4-1.8,2.3c-0.5,0.9-0.8,1.8-0.8,2.6
		c0,0.6,0.1,1.1,0.4,1.5c0.4,0.5,0.8,0.6,1.1,0.6c0.8,0,1.6-0.6,2.3-1.7c0.3-0.6,0.7-1.2,1-2c0,0,0,0.1,0,0.1l0,0.8
		c0,0.6,0,1.1,0,1.6c0,0.2,0,0.3,0.1,0.5c0.1,0.4,0.5,0.5,1.1,0.2c0.3-0.2,0.4-0.4,0.4-0.6c0-0.1,0-0.2-0.1-0.5L79.5,20.8z M75,21.1
		c-0.1,0-0.1,0-0.1-0.1c-0.1-0.1-0.1-0.3-0.1-0.5c0-0.6,0.2-1.2,0.6-1.9c0.4-0.7,0.8-1.3,1.3-1.8c0.2-0.2,0.3-0.3,0.4-0.4
		c0,0.1,0.1,0.2,0.2,0.3c0.1,0,0.2,0.1,0.3,0.1c0.1,0,0.2,0,0.3-0.1c-0.3,1-0.7,2-1.2,2.9C76,20.6,75.5,21.1,75,21.1z"/>
	<path class="st2" d="M94.3,17.7c-0.1-1.4-0.2-2.7-0.4-3.7c-0.2-1.5-0.4-1.9-0.8-1.9c-0.3,0-0.6,0.1-0.7,0.2
		c-0.1,0.1-0.2,0.3-0.4,0.5c-0.5,1.2-1,2.7-1.5,4.2c-0.1,0.4-0.3,0.8-0.4,1.3c-0.1-0.5-0.2-1-0.2-1.6c-0.1-0.9-0.2-1.6-0.4-2.3
		c-0.2-0.8-0.4-1.2-0.8-1.2c-0.4,0-0.9,0.2-1.3,1c-0.3,0.5-0.5,1.3-0.7,2.3l-0.1,0.6c-0.1,0.3-0.1,0.5-0.2,0.8c0-0.1,0-0.1,0-0.2
		c0-0.3-0.1-0.7-0.1-0.9l0-0.5c-0.1-0.9-0.2-1.6-0.3-2.2C86,13.5,85.9,13,85.5,13c-0.2,0-0.4,0.1-0.6,0.2c-0.2,0.2-0.4,0.4-0.4,0.7
		c0,0.1,0,0.1,0.1,0.6c0.2,0.9,0.4,1.8,0.5,2.8c0.1,0.7,0.2,1.6,0.3,2.5c0.1,1,0.2,1.6,0.2,1.9c0,0.7,0.5,0.8,0.6,0.8
		c0.2,0,0.4-0.1,0.6-0.2c0.3-0.2,0.4-0.4,0.4-0.5c0.3-1.7,0.5-3,0.7-3.8c0.2-0.9,0.4-1.7,0.5-2.2c0,0.2,0.1,0.5,0.1,0.8l0.1,0.6
		c0.1,0.6,0.2,1.3,0.3,2c0.1,0.7,0.2,1.2,0.3,1.3c0.1,0.2,0.1,0.3,0.2,0.4c0.3,0.2,0.6,0.2,0.9,0c0.1-0.1,0.2-0.1,0.3-0.2
		c0.2-0.1,0.3-0.4,0.5-0.9c0.2-0.4,0.4-1.2,0.7-2.3c0.3-1,0.5-1.8,0.7-2.4c0.1,0.6,0.2,1.5,0.3,2.8c0.1,0.9,0.2,1.7,0.3,2.4
		c0.2,1,0.3,1.2,0.3,1.3c0.1,0.2,0.2,0.3,0.4,0.3c0.2,0,0.6,0,0.9-0.2c0.2-0.2,0.3-0.3,0.3-0.5c0-0.2-0.1-0.4-0.3-0.7
		C94.8,20.6,94.6,20.2,94.3,17.7z"/>
	<path class="st2" d="M101.3,18.2c-0.3,0-0.4,0.3-0.5,0.4c0,0.1-0.1,0.2-0.1,0.2c-0.3,0.6-0.6,1.2-1.1,1.6c-0.4,0.4-0.9,0.6-1.5,0.6
		c-0.4,0-0.6-0.1-0.8-0.3c-0.2-0.2-0.3-0.6-0.3-1c0-0.3,0-0.6,0.1-0.9c0.6-0.1,1.1-0.3,1.6-0.5c0.6-0.2,1.1-0.5,1.5-0.9
		c0.5-0.4,0.7-0.8,0.7-1.2c0-0.4-0.2-0.8-0.5-1c-0.3-0.2-0.7-0.3-1.1-0.3c-0.7,0-1.3,0.3-1.9,0.8c-0.6,0.5-1.1,1.1-1.4,1.9
		c-0.4,0.8-0.5,1.5-0.5,2.3c0,0.9,0.2,1.6,0.7,2c0.5,0.4,1.1,0.7,1.8,0.7c0.8,0,1.5-0.3,2.1-0.8c0.5-0.5,0.9-1.1,1.2-1.7
		c0.4-0.8,0.4-1.1,0.4-1.3C101.7,18.2,101.3,18.2,101.3,18.2z M98.4,16.5c0.3-0.2,0.5-0.3,0.8-0.3c0.1,0,0.3,0,0.4,0.1l0,0
		c0,0,0,0.1-0.3,0.3c-0.3,0.2-0.7,0.4-1.1,0.6c-0.2,0.1-0.4,0.1-0.6,0.2c0,0,0.1-0.1,0.1-0.1C97.9,17,98.2,16.7,98.4,16.5z"/>
	<path class="st2" d="M107.4,16.5c-0.2-0.9-0.6-1-1-1c-0.6,0-1.1,0.5-1.6,1.5c-0.3,0.6-0.6,1.4-1,2.2c0-0.1,0-0.1,0-0.2l-0.1-0.7
		c0-1-0.1-1.7-0.1-2.2c0-0.4-0.1-1-0.6-1c-0.2,0-0.5,0.1-0.6,0.2c-0.2,0.2-0.3,0.4-0.3,0.6c0,0.1,0,0.2,0,0.4
		c0.1,0.6,0.2,1.3,0.2,2.1l0.3,3.2c0,0.3,0.2,0.4,0.3,0.5c0.2,0.1,0.6,0.1,0.9-0.1c0.2-0.1,0.3-0.2,0.3-0.4l0.2-0.6
		c0.5-1.3,0.9-2.3,1.3-3.1c0.2-0.5,0.4-0.8,0.6-0.9c0,0,0,0.1,0,0.1c0,0.3,0,0.8,0,1.3c0,0.6,0,1.3-0.1,2.1
		c-0.1,0.8-0.1,1.4-0.1,1.8c0,0.2,0.1,0.4,0.3,0.5c0.1,0.1,0.3,0.1,0.4,0.1c0.2,0,0.4-0.1,0.6-0.2c0,0,0,0,0,0
		c0.2-0.2,0.3-0.3,0.3-0.6c0-1.6,0-2.9,0-3.7C107.6,17.7,107.5,17,107.4,16.5z"/>
	<path class="st2" d="M114.9,21.4c-0.1-0.1-0.2-0.2-0.2-0.4c-0.1-0.2-0.1-0.4-0.2-0.7c0-0.4-0.1-1.2-0.1-2.2c0-1.1,0-1.8,0-2.3
		c0-0.2-0.1-0.4-0.3-0.6c-0.2-0.1-0.4-0.2-0.5-0.2c-0.1,0-0.3,0-0.4,0.3c0,0.1-0.1,0.2-0.1,0.4c-0.1,0.4-0.2,0.6-0.2,0.8
		c-0.2,0.5-0.5,1.2-0.9,1.9c-0.4,0.7-0.8,1.4-1.2,1.9c-0.3,0.4-0.5,0.5-0.6,0.6c0-0.1,0-0.3,0-0.7c0-1.1,0.1-1.9,0.3-2.5
		c0.2-0.6,0.4-1.2,0.6-1.6c0.1-0.2,0.2-0.4,0.2-0.5c0-0.2-0.1-0.5-0.7-0.5c-0.2,0-0.4,0.1-0.5,0.2c-0.1,0.1-0.2,0.3-0.3,0.5
		c-0.2,0.5-0.4,1.1-0.6,2c-0.2,0.9-0.3,1.6-0.3,2.3c0,0.8,0.1,1.3,0.2,1.7c0.1,0.5,0.5,0.8,1,0.8c0.4,0,0.9-0.3,1.4-1
		c0.5-0.6,1-1.3,1.4-2.2c0.2-0.3,0.3-0.5,0.4-0.8c0,1,0,1.6,0.1,2c0,0.5,0.1,0.9,0.3,1.3c0.1,0.2,0.3,0.8,0.9,0.8
		c0.3,0,0.5-0.1,0.6-0.2c0.1-0.1,0.2-0.3,0.2-0.6C115.1,21.7,115,21.6,114.9,21.4z"/>
</g>
<g>
	<path class="st3" d="M147.5,35.4l2.3-3.1c0.3-0.4,0.8-0.5,1.2-0.2c0.4,0.3,0.5,0.8,0.2,1.2l-3.4,4.7c-0.1,0.2-0.3,0.3-0.5,0.3
		c0,0,0,0-0.1,0c0,0-0.1,0-0.1,0c0,0,0,0-0.1,0c0,0,0,0-0.1,0c-0.1,0-0.3-0.1-0.4-0.2l-4.7-3.4c-0.4-0.3-0.5-0.8-0.2-1.2
		s0.8-0.5,1.2-0.2l2.9,2.1c0.2-5.5-2-9.9-6.6-13.1c-2.3-1.5-4.9-2.6-7.6-3.2c-0.5-0.1-0.8-0.5-0.7-1c0.1-0.4,0.5-0.8,1-0.7
		c2.9,0.6,5.7,1.8,8.2,3.4C143.7,23.4,147.8,27.8,147.5,35.4"/>
</g>
</svg>
